<svg xmlns="http://www.w3.org/2000/svg" xmlns:xlink="http://www.w3.org/1999/xlink" x="0px" y="0px" width="24px" height="24px" viewBox="0 0 24 24"><path d="M6.11914 6.18652C6.26202 6.8933 6.53207 7.57223 6.91797 8.18848C5.72906 9.4438 5 11.1364 5 13C5 13.374 5.02881 13.7406 5.08496 14.0977L4.09766 14.2529L3.10938 14.4082C3.03713 13.9488 3 13.4784 3 13C3 10.2766 4.21014 7.83562 6.11914 6.18652Z" fill="#000" data-color="color-2" data-stroke="none"></path><path d="M17.5586 18.7979L18.1836 19.5781L17.625 20.0254C16.0845 21.2602 14.1272 21.9999 12 22C10.6767 22 9.4174 21.7132 8.2832 21.1982C8.76035 20.7115 9.15523 20.1447 9.44531 19.5186C10.2357 19.8286 11.0969 20 12 20C13.6562 19.9999 15.1755 19.4255 16.374 18.4648L16.9326 18.0176L17.5586 18.7979Z" fill="#000" data-color="color-2" data-stroke="none"></path><path d="M15.1387 4.5625C17.9682 5.61554 20.1249 8.05151 20.7871 11.0518C20.109 10.9625 19.4188 10.9903 18.748 11.1328C18.149 8.96436 16.5318 7.21557 14.4414 6.4375L15.1387 4.5625Z" fill="#000" data-color="color-2" data-stroke="none"></path><path d="M15 5C15 6.65685 13.6569 8 12 8C10.3431 8 9 6.65685 9 5C9 3.34315 10.3431 2 12 2C13.6569 2 15 3.34315 15 5Z" stroke="black" stroke-width="2" fill="none"></path><path d="M7 17C7 18.6569 5.65685 20 4 20C2.34315 20 1 18.6569 1 17C1 15.3431 2.34315 14 4 14C5.65685 14 7 15.3431 7 17Z" stroke="black" stroke-width="2" fill="none"></path><path d="M23 17C23 18.6569 21.6569 20 20 20C18.3431 20 17 18.6569 17 17C17 15.3431 18.3431 14 20 14C21.6569 14 23 15.3431 23 17Z" stroke="black" stroke-width="2" fill="none"></path></svg>