<svg xmlns="http://www.w3.org/2000/svg" xmlns:xlink="http://www.w3.org/1999/xlink" x="0px" y="0px" width="24px" height="24px" viewBox="0 0 24 24"><path d="M12 15C13.6569 15 15 13.6569 15 12C15 10.3431 13.6569 9 12 9C10.3431 9 9 10.3431 9 12C9 13.6569 10.3431 15 12 15Z" stroke="black" stroke-width="2" stroke-miterlimit="10" stroke-linecap="square" fill="none"></path><path d="M15 2C15 3.65685 13.6569 5 12 5C10.3431 5 9 3.65685 9 2" stroke="#000" stroke-width="2" stroke-miterlimit="10" data-color="color-2" fill="none"></path><path d="M15 22C15 20.3431 13.6569 19 12 19C10.3431 19 9 20.3431 9 22" stroke="#000" stroke-width="2" stroke-miterlimit="10" data-color="color-2" fill="none"></path><path d="M22 15C20.3431 15 19 13.6569 19 12C19 10.3431 20.3431 9 22 9" stroke="#000" stroke-width="2" stroke-miterlimit="10" data-color="color-2" fill="none"></path><path d="M2 15C3.65685 15 5 13.6569 5 12C5 10.3431 3.65685 9 2 9" stroke="#000" stroke-width="2" stroke-miterlimit="10" data-color="color-2" fill="none"></path></svg>