<svg xmlns="http://www.w3.org/2000/svg" xmlns:xlink="http://www.w3.org/1999/xlink" x="0px" y="0px" width="24px" height="24px" viewBox="0 0 24 24"><path d="M8.82222 8.81389C9.31607 8.32004 9.87563 7.93011 10.4726 7.64412L12.0235 9.19506C11.3694 9.37057 10.751 9.71353 10.2364 10.2281C8.67447 11.7902 8.67438 14.3229 10.2364 15.885L10.2371 15.8856L13.156 18.8128C14.7182 20.3737 17.2498 20.3731 18.8115 18.8114C20.3736 17.2493 20.3736 14.7167 18.8115 13.1546L18.6651 13.0082C18.8899 12.1654 18.9749 11.2942 18.9199 10.429L20.2278 11.7424C22.569 14.0857 22.5682 17.8831 20.2257 20.2256C17.8826 22.5687 14.0835 22.5688 11.7404 20.2256L11.7397 20.225L8.82153 17.2985C6.47912 14.9553 6.47944 11.1568 8.82222 8.81389Z" fill="black" data-stroke="none"></path><path d="M15.1819 15.182C14.6864 15.6775 14.1245 16.0676 13.5253 16.3538L11.9744 14.8029C12.6309 14.6278 13.2514 14.284 13.7677 13.7678C15.3298 12.2057 15.3298 9.673 13.7677 8.1109L10.8398 5.18304C9.27775 3.62094 6.74509 3.62094 5.18299 5.18304C3.62089 6.74514 3.62089 9.2778 5.18299 10.8399L5.33422 10.9911C5.10988 11.8318 5.02462 12.7011 5.07872 13.5641L3.76877 12.2541C1.42563 9.91096 1.42563 6.11197 3.76877 3.76883C6.11192 1.42568 9.91091 1.42568 12.2541 3.76883L15.1819 6.69669C17.5251 9.03984 17.5251 12.8388 15.1819 15.182Z" fill="black" data-stroke="none"></path></svg>