<svg xmlns="http://www.w3.org/2000/svg" xmlns:xlink="http://www.w3.org/1999/xlink" x="0px" y="0px" width="24px" height="24px" viewBox="0 0 24 24"><path d="M11.7568 1C5.79315 1.00021 1 5.94835 1 12C1 18.0516 5.79315 22.9998 11.7568 23C16.0561 22.9998 19.7479 20.4235 21.4717 16.7227L19.7617 15.6543C18.3939 18.8149 15.3143 20.9998 11.7568 21C6.94386 20.9998 3 16.9938 3 12C3 7.00621 6.94386 3.00021 11.7568 3C14.6106 3.00015 17.1535 4.40307 18.7568 6.59082L18.7676 6.60547L18.7783 6.61914L20.1562 8.36621L20.9414 7.74609L21.7266 7.12695L20.3486 5.38086C18.3908 2.72718 15.2743 1.00015 11.7568 1Z" fill="#000" data-color="color-2" data-stroke="none"></path><path d="M21.5 4V8H17.5" stroke="black" stroke-width="2" stroke-linecap="square" fill="none"></path></svg>