<svg xmlns="http://www.w3.org/2000/svg" xmlns:xlink="http://www.w3.org/1999/xlink" x="0px" y="0px" width="24px" height="24px" viewBox="0 0 24 24"><path d="M12.2432 1C18.2069 1.00021 23 5.94835 23 12C23 18.0516 18.2069 22.9998 12.2432 23C7.94394 22.9998 4.25212 20.4235 2.52832 16.7227L4.23828 15.6543C5.60607 18.8149 8.68571 20.9998 12.2432 21C17.0561 20.9998 21 16.9938 21 12C21 7.00621 17.0561 3.00021 12.2432 3C9.38943 3.00015 6.84655 4.40307 5.24316 6.59082L5.23242 6.60547L5.22168 6.61914L3.84375 8.36621L3.05859 7.74609L2.27344 7.12695L3.65137 5.38086C5.60921 2.72718 8.72573 1.00015 12.2432 1Z" fill="#000" data-color="color-2" data-stroke="none"></path><path d="M2.5 4V8H6.5" stroke="black" stroke-width="2" stroke-linecap="square" fill="none"></path></svg>