<svg xmlns="http://www.w3.org/2000/svg" xmlns:xlink="http://www.w3.org/1999/xlink" x="0px" y="0px" width="24px" height="24px" viewBox="0 0 24 24"><path d="M10.5 2H13.5L14.1693 3.3386C14.6144 4.22882 15.6464 4.65628 16.5906 4.34154L18.0104 3.86827L20.1317 5.98959L19.6585 7.40939C19.3437 8.35362 19.7712 9.38559 20.6614 9.8307L22 10.5V13.5L20.6614 14.1693C19.7712 14.6144 19.3437 15.6464 19.6585 16.5906L20.1317 18.0104L18.0104 20.1317L16.5906 19.6585C15.6464 19.3437 14.6144 19.7712 14.1693 20.6614L13.5 22H10.5L9.8307 20.6614C9.38559 19.7712 8.35362 19.3437 7.40939 19.6585L5.98959 20.1317L3.86827 18.0104L4.34154 16.5906C4.65628 15.6464 4.22882 14.6144 3.3386 14.1693L2 13.5V10.5L3.3386 9.8307C4.22882 9.38559 4.65628 8.35362 4.34154 7.40939L3.86827 5.98959L5.98959 3.86827L7.40939 4.34154C8.35361 4.65628 9.38559 4.22882 9.8307 3.3386L10.5 2Z" stroke="#000" stroke-width="2" data-color="color-2" fill="none"></path><path d="M15 12C15 13.6569 13.6569 15 12 15C10.3431 15 9 13.6569 9 12C9 10.3431 10.3431 9 12 9C13.6569 9 15 10.3431 15 12Z" stroke="black" stroke-width="2" fill="none"></path></svg>